<svg xmlns="http://www.w3.org/2000/svg" viewBox="0 0 100.71 112.82"><defs><style>.cls-1{fill:#86c3d0;}.cls-2{fill:#fff;}.cls-3{font-size:12px;fill:#1d1d1b;font-family:MyriadPro-Regular, Myriad Pro;}.cls-4{letter-spacing:-0.01em;}.cls-5{letter-spacing:0em;}.cls-6{letter-spacing:0em;}.cls-7{letter-spacing:0em;}</style></defs><g id="API"><path class="cls-1" d="M49.4,14a43,43,0,1,0,43.05,43A43,43,0,0,0,49.4,14Z"/><path class="cls-2" d="M73.92,78.59H26.79a3.35,3.35,0,0,1-3.35-3.35v-30a1,1,0,0,1,1-1H76.23a1,1,0,0,1,1,1V75.24A3.35,3.35,0,0,1,73.92,78.59ZM25.51,46.23v29a1.28,1.28,0,0,0,1.28,1.28H73.92a1.28,1.28,0,0,0,1.28-1.28v-29Z"/><path class="cls-2" d="M76.23,46.23H24.48a1,1,0,0,1-1-1V37.57a3.35,3.35,0,0,1,3.35-3.34H73.92a3.35,3.35,0,0,1,3.35,3.34v7.62A1,1,0,0,1,76.23,46.23ZM25.51,44.16H75.2V37.57a1.28,1.28,0,0,0-1.28-1.27H26.79a1.27,1.27,0,0,0-1.28,1.27Z"/><path class="cls-2" d="M39,40.23a1.61,1.61,0,1,0,1.61-1.61A1.61,1.61,0,0,0,39,40.23Z"/><path class="cls-2" d="M34.08,40.23a1.62,1.62,0,1,0,1.62-1.61A1.62,1.62,0,0,0,34.08,40.23Z"/><path class="cls-2" d="M29.16,40.23a1.61,1.61,0,1,0,1.61-1.61A1.61,1.61,0,0,0,29.16,40.23Z"/><path class="cls-2" d="M44.83,78.59H37.67a1,1,0,0,1-1-1V58.48a1,1,0,0,1,.1-.45l3.57-7.82a1.05,1.05,0,0,1,.94-.6,1,1,0,0,1,.94.6L45.77,58a1.14,1.14,0,0,1,.1.45V77.55A1,1,0,0,1,44.83,78.59Zm-6.12-2.07H43.8v-17H38.71Zm.57-19.07h3.94l-2-4.31Z"/><path class="cls-2" d="M63,78.59H53.61a1,1,0,0,1-1-1V50.64a1,1,0,0,1,1-1H63a1,1,0,0,1,1,1V77.55A1,1,0,0,1,63,78.59Zm-8.4-2.07H62V51.68H54.64Z"/><path class="cls-2" d="M63,57.9H58.32a1,1,0,0,1,0-2.07H63a1,1,0,0,1,0,2.07Z"/><path class="cls-2" d="M63,62.72H60.39a1,1,0,0,1,0-2.07H63a1,1,0,0,1,0,2.07Z"/><path class="cls-2" d="M63,67.55H60.39a1,1,0,0,1,0-2.07H63a1,1,0,0,1,0,2.07Z"/><path class="cls-2" d="M63,72.37H58.32a1,1,0,0,1,0-2.07H63a1,1,0,0,1,0,2.07Z"/></g><g id="HOSTING"><text class="cls-3" transform="translate(17.93 -4.98)">URL <tspan class="cls-4" x="22.43" y="0">r</tspan><tspan class="cls-5" x="26.23" y="0">ew</tspan><tspan class="cls-6" x="41.08" y="0">r</tspan><tspan class="cls-7" x="45.05" y="0">iting</tspan></text></g></svg>